<svg width="57px" height="54px" viewBox="0 0 57 54" version="1.1" xmlns="http://www.w3.org/2000/svg" xmlns:xlink="http://www.w3.org/1999/xlink">
    <g id="Page-1" stroke="none" stroke-width="1" fill="none" fill-rule="evenodd">
        <g id="Desktop" transform="translate(-967.000000, 0.000000)">
            <g id="Rectangle-3" transform="translate(0.000000, -1.000000)">
                <g id="Rectangle-2">
                    <g id="icon-button-/-02-hover" transform="translate(967.000000, 0.000000)">
                        <rect id="background" fill="#353535" x="0" y="0" width="57" height="55"></rect>
                        <g id="Actions-/-Formatting-/-edit-/-16" transform="translate(13.500000, 12.500000)" fill="#F4F4F4">
                            <path d="M1.875,24.375 L28.125,24.375 L28.125,26.25 L1.875,26.25 L1.875,24.375 Z M23.8125,8.4375 C24.5625,7.6875 24.5625,6.5625 23.8125,5.8125 L20.4375,2.4375 C19.6875,1.6875 18.5625,1.6875 17.8125,2.4375 L3.75,16.5 L3.75,22.5 L9.75,22.5 L23.8125,8.4375 Z M19.125,3.75 L22.5,7.125 L19.6875,9.9375 L16.3125,6.5625 L19.125,3.75 Z M5.625,20.625 L5.625,17.25 L15,7.875 L18.375,11.25 L9,20.625 L5.625,20.625 Z" id="Fill"></path>
                        </g>
                    </g>
                </g>
            </g>
        </g>
    </g>
</svg>