<svg width="47px" height="43px" viewBox="0 0 47 43" version="1.1" xmlns="http://www.w3.org/2000/svg" xmlns:xlink="http://www.w3.org/1999/xlink">
    <g id="Page-1" stroke="none" stroke-width="1" fill="none" fill-rule="evenodd">
        <g id="Desktop" transform="translate(-9.000000, -2.000000)" fill-rule="nonzero">
            <g id="Rectangle-3" transform="translate(0.000000, -1.000000)">
                <g id="Rectangle-2">
                    <g id="piggy-bank" transform="translate(9.000000, 3.000000)">
                        <path d="M41.8193787,24.7403771 C41.7472886,24.7455528 41.6775751,24.7603407 41.6039006,24.7603407 C40.0725805,24.7603407 38.8312051,23.6017137 38.8312051,22.1724693 C38.8312051,21.0833452 39.5536903,20.1554085 40.5748345,19.7738823 C39.0688647,16.010378 36.1963521,13.1962528 32.5950167,11.4254094 C32.5918479,11.4239306 32.5878869,11.4239306 32.5847181,11.4231913 C32.0753343,12.5729455 31.3108626,13.5992213 30.3467567,14.4317765 C26.6543184,12.6187878 22.1482921,12.7821934 18.5992418,14.91386 C17.1796216,13.8875841 16.1030236,12.4768246 15.5270951,10.8531202 C15.5080823,10.8094961 15.4835242,10.7703083 15.4684724,10.7237266 C14.3284984,11.0571923 13.3271592,11.3854823 12.6823094,11.6368755 C9.36062018,10.3776912 7.0418545,9.83349887 5.01065696,10.0442255 C4.72150442,10.0738012 4.66684271,10.433885 4.92906049,10.5514483 C6.77567573,11.3810459 7.09889281,13.5770396 7.92911708,15.2199682 C5.51766415,17.387865 5.28158892,18.9627695 4.85617821,21.8027734 L3.16879491,21.8027734 C0.895184563,21.8027734 0,23.5233382 0,25.6453926 L0,28.3123789 C0,30.4344334 0.895184563,32.1542587 3.16879491,32.1542587 L4.20974404,32.1542587 C6.57208065,38.5677432 14.8664013,42 23.5679122,42 C34.1778298,42 42,36.293374 42,27.7179079 C42,26.6849775 41.9358319,25.6934531 41.8193787,24.7403771" id="XMLID_118_" fill="#F4ADC9"></path>
                        <path d="M13,21 C13,22.1048 12.1048,23 11,23 C9.8952,23 9,22.1048 9,21 C9,19.8952 9.8952,19 11,19 C12.1048,19 13,19.8952 13,21" id="XMLID_117_" fill="#FFFFFF"></path>
                        <path d="M41.8571429,28 C41.384,28 41,27.68 41,27.2857143 C41,26.8914286 41.384,26.5714286 41.8571429,26.5714286 C43.748,26.5714286 45.2857143,25.29 45.2857143,23.7142857 C45.2857143,23.32 45.6697143,23 46.1428571,23 C46.616,23 47,23.32 47,23.7142857 C47,26.0778571 44.6934286,28 41.8571429,28" id="XMLID_116_" fill="#E685A5"></path>
                        <path d="M46.1428571,24 C45.6697143,24 45.2857143,23.68 45.2857143,23.2857143 C45.2857143,21.71 43.748,20.4285714 41.8571429,20.4285714 C41.384,20.4285714 41,20.1085714 41,19.7142857 C41,19.32 41.384,19 41.8571429,19 C44.6934286,19 47,20.9221429 47,23.2857143 C47,23.6807143 46.616,24 46.1428571,24" id="XMLID_115_" fill="#E685A5"></path>
                        <path d="M42.5,26 C40.5703333,26 39,24.4296667 39,22.5 C39,20.5703333 40.5703333,19 42.5,19 C44.4296667,19 46,20.5703333 46,22.5 C46,24.4296667 44.4296667,26 42.5,26 M42.5,20.5555556 C41.4282222,20.5555556 40.5555556,21.4282222 40.5555556,22.5 C40.5555556,23.5717778 41.4282222,24.4444444 42.5,24.4444444 C43.5717778,24.4444444 44.4444444,23.5717778 44.4444444,22.5 C44.4444444,21.4282222 43.5717778,20.5555556 42.5,20.5555556" id="XMLID_112_" fill="#E685A5"></path>
                        <path d="M44.784343,23 C44.6745133,23 44.5631147,22.9791688 44.4572075,22.934633 C44.0633896,22.7687013 43.8908001,22.34202 44.0720191,21.981424 C44.5450712,21.039708 44.5513472,19.9579199 44.089278,19.0126124 C43.9119816,18.6505797 44.089278,18.2260533 44.4846649,18.0637132 C44.8784827,17.8999366 45.3436899,18.0629949 45.5209864,18.4257459 C46.168197,19.7496075 46.158783,21.2638235 45.4974514,22.5819385 C45.3664403,22.8448431 45.0808832,23 44.784343,23" id="XMLID_111_" fill="#E685A5"></path>
                        <path d="M38.7518416,37 C36.8230696,39.0038305 34.1672129,40.5264544 31,41.4436198 L31.2365023,42.1510654 C31.4042911,42.6545367 31.9204413,43 32.505305,43 L37.312853,43 C39.1657205,43 40.4608901,41.3531243 39.8448656,39.7830979 L38.7518416,37 Z" id="XMLID_110_" fill="#E685A5"></path>
                        <path d="M7.43249975,37 L6.17385076,39.9363096 C5.54413611,41.4037365 6.70290471,43 8.39696978,43 L13.6570769,43 C13.9988551,43 14.3070798,42.8056533 14.4342712,42.508674 L15,41.188281 C12.0121717,40.2769623 9.37938706,38.8757734 7.43249975,37" id="XMLID_109_" fill="#E685A5"></path>
                        <path d="M23.0567922,40 C20.0139808,40 17.2467509,39.4756482 14.4852284,38.3885065 C14.0734868,38.226777 13.8875916,37.7988827 14.0702255,37.4319089 C14.252044,37.0656604 14.7330887,36.9003046 15.1456457,37.0620342 C18.3376624,38.3196083 21.410641,38.7533046 25.1146849,38.4682834 C25.5614858,38.4262192 25.9585514,38.7293715 25.996872,39.128256 C26.0360078,39.5278658 25.7033532,39.8788842 25.2549217,39.9129706 C24.5048181,39.9709902 23.7726519,40 23.0567922,40" id="XMLID_108_" fill="#E685A5"></path>
                        <path d="M33.2127632,17.9998021 C33.0112809,17.9998021 32.8097986,17.9222121 32.6563258,17.7678239 C28.4346429,13.5217529 21.5653571,13.5217529 17.3436742,17.7678239 C17.0359415,18.077392 16.5377451,18.077392 16.2307995,17.7678239 C15.9230668,17.4582558 15.9230668,16.9578797 16.2307995,16.6483116 C21.0655867,11.7838961 28.9336263,11.7838961 33.7692005,16.6483116 C34.0769332,16.9578797 34.0769332,17.4582558 33.7692005,17.7678239 C33.6157277,17.9222121 33.4142454,17.9998021 33.2127632,17.9998021" id="XMLID_107_" fill="#E685A5"></path>
                        <path d="M17.8823478,15 C21.714,12.5335343 26.6694783,12.360211 30.663913,14.4702336 C32.1109565,12.9344386 33,10.9035418 33,8.66616428 C33,3.87942728 28.9703478,0 24,0 C19.0296522,0 15,3.87942728 15,8.66616428 C15,11.1725697 16.1152174,13.4189902 17.8823478,15" id="XMLID_106_" fill="#FFD949"></path>
                        <path d="M20.9632,13 C23.0632,12.4219198 25.2968,12.3502865 27.4336,12.7743553 C28.984,11.8030086 30,10.1955587 30,8.37249284 C30,5.40544413 27.3144,3 24,3 C20.6864,3 18,5.40544413 18,8.37249284 C18,10.3459885 19.192,12.0659026 20.9632,13" id="XMLID_105_" fill="#F4BF1A"></path>
                    </g>
                </g>
            </g>
        </g>
    </g>
</svg>