<?xml version="1.0" encoding="UTF-8"?>
<svg width="51px" height="47px" viewBox="0 0 51 47" version="1.1" xmlns="http://www.w3.org/2000/svg" xmlns:xlink="http://www.w3.org/1999/xlink">
    <!-- Generator: Sketch 60.1 (88133) - https://sketch.com -->
    <title>wallet</title>
    <desc>Created with Sketch.</desc>
    <g id="Page-1" stroke="none" stroke-width="1" fill="none" fill-rule="evenodd">
        <g id="Desktop" transform="translate(-635.000000, 0.000000)">
            <g id="Rectangle-3" transform="translate(0.000000, -1.000000)" fill="#000000" stroke="#000000">
                <g id="Rectangle-2">
                    <rect id="Rectangle" x="0.5" y="0.5" width="1023" height="56"></rect>
                </g>
            </g>
            <g id="wallet" transform="translate(635.000000, -1.000000)" fill-rule="nonzero">
                <path d="M46.1896236,25 L50,25 L50,37 L39.1986716,37 C36.8795616,37.000825 34.99959,35.1084555 35,32.7745607 L35,29.2254393 C34.99959,26.8915445 36.8795616,24.999175 39.1986716,25 L46.1896236,25 Z" id="Path" fill="#00ACEA"></path>
                <path d="M34.2177163,15.0390511 L45.9473068,15.0390511 L45.9473068,24.3081085 L38.9284068,24.3081085 C36.6000257,24.3076922 34.7125384,26.2158563 34.7129501,28.5697441 L34.7129501,32.1496844 C34.7125384,34.5035722 36.6000257,36.4117362 38.9284068,36.41132 L46,36.41132 L46,46 L6.26932084,46 C3.35966774,45.9987514 1.00123502,43.6144829 1,40.6729555 L1,10 L1.01070326,10 C1.15931465,12.8258306 3.46958251,15.0402997 6.26932084,15.0390511 L34.2177163,15.0390511 Z" id="Path" fill="#00EFD1"></path>
                <path d="M40,14.9452736 L40,15 L33.5852022,15 L23,4 L37.3536995,4 C38.8149536,4.00085504 39.9995865,5.22535753 40,6.73631841 L40,14.9452736 Z" id="Path" fill="#00ACEA"></path>
                <path d="M23.2813944,4.7994522 L34,16 L7,16 L7,15.9551596 L14.9640076,4.8103359 L17.0432497,1.90179805 C17.414214,1.38025518 17.9853146,1.0533113 18.6074962,1.00585876 C19.2296778,0.958841536 19.8405545,1.19653978 20.2801849,1.65669908 L23.2813944,4.7994522 Z" id="Path" fill="#D4E1F4"></path>
                <path d="M16,4.01068883 L7.89468843,14.9559622 L7.89468843,15 L6.45481416,15 C3.55674237,15.0008549 1.16533242,12.7262903 1.01150144,9.82279996 C1.00212676,9.72446358 0.998717762,9.62569956 1.00042226,9.52736306 L1.00042226,9.4726367 C1.00170066,6.45071523 3.44296713,4.00085515 6.45481416,4 L15.9889208,4 L16,4.01068883 Z" id="Path" fill="#00ACEA"></path>
                <g id="Group" fill="#083863">
                    <path d="M49.8403351,23.9038618 L47.067836,23.9038618 L47.067836,15.6120073 C47.0661889,15.0180495 46.5951152,14.5368258 46.0136851,14.5351431 L41.7233734,14.5351431 L41.7233734,7.48168241 C41.7209028,5.4007265 40.0704979,3.71476095 38.0338454,3.71265762 L24.1717616,3.71265762 L21.5256783,0.999043986 C20.8783638,0.331051646 19.9782177,-0.0151434032 19.060777,0.0508986337 C18.1429246,0.117361401 17.2991922,0.589330746 16.7502925,1.34355633 L15.0323559,3.71265762 L6.32490517,3.71265762 C2.83303044,3.7156022 0.00288244903,6.6063096 2.84217094e-14,10.173843 L2.84217094e-14,41.5105919 C0.00288244903,45.0777047 2.83303044,47.9688328 6.32490517,47.9717773 L46.0663927,47.9717773 C46.6478228,47.9700948 47.1188964,47.4888711 47.1205435,46.894913 L47.1205435,38.2905156 L49.8403351,38.2905156 C50.4217652,38.288833 50.8928388,37.8076093 50.8944905,37.2136513 L50.8944905,24.9807261 C50.8953096,24.694684 50.7845413,24.4204203 50.586888,24.2180875 C50.388823,24.0157548 50.1199322,23.9026 49.8403351,23.9038618 L49.8403351,23.9038618 Z M38.0338454,5.86638296 C38.4534469,5.86554482 38.8557537,6.03548746 39.1526454,6.33877615 C39.4491253,6.64164421 39.6154836,7.05304005 39.6150725,7.48168241 L39.6150725,14.5351431 L34.7235647,14.5351431 L26.2800633,5.86638296 L38.0338454,5.86638296 Z M18.4369339,2.6357934 C18.620175,2.38466532 18.9010073,2.22776287 19.2065464,2.20504771 C19.5120854,2.18233266 19.8122713,2.29632886 20.0288664,2.51717013 L31.7406471,14.5351431 L9.79289685,14.5351431 L18.4369339,2.6357934 Z M2.10830145,10.173843 C2.10747822,7.79464607 3.99589061,5.86554482 6.32490517,5.8663858 L13.4721303,5.8663858 L7.16822586,14.5351505 L6.32490517,14.5351505 C4.08524634,14.5393496 2.235541,12.7490629 2.11900789,10.4645122 L2.11900789,10.4535754 C2.11900789,10.3892158 2.10830145,10.3244358 2.10830145,10.2276862 L2.10830145,10.173843 Z M45.0122418,45.8180489 L6.32490517,45.8180489 C3.99589061,45.8184695 2.10747822,43.8897888 2.10830145,41.5105919 L2.10830145,15.0521221 C3.26704417,16.1130016 4.76879729,16.6998085 6.32490517,16.6993879 L34.0490728,16.6993879 C34.1388403,16.7216823 34.2306668,16.7321985 34.3233167,16.7317779 C34.4155549,16.7317779 34.5073814,16.720841 34.597149,16.6993879 L44.9702404,16.6993879 L44.9702404,23.9143782 L39.0035819,23.9143782 C36.0931372,23.9156401 33.7340629,26.3255445 33.7328276,29.2986993 L33.7328276,32.9171313 C33.7340629,35.8902861 36.0931372,38.3001904 39.0035819,38.3014524 L45.022948,38.3014524 L45.022948,45.8180489 L45.0122418,45.8180489 Z M48.7861842,36.1367871 L38.9928757,36.1367871 C37.2485854,36.1317393 35.8357762,34.6884888 35.8304231,32.9061944 L35.8304231,29.288183 C35.8357762,27.5058886 37.2485854,26.0626382 38.9928757,26.0575903 L45.6867337,26.0575903 C45.8992109,26.1291009 46.1281594,26.1291009 46.3406365,26.0575903 L48.7861842,26.0575903 L48.7861842,36.1367871 Z" id="Shape"></path>
                    <path d="M40.0470266,28.2113083 C39.4655964,28.2130014 38.9945227,28.6942251 38.9928757,29.288183 L38.9928757,32.9061944 C38.9928757,33.5009936 39.4651846,33.9830587 40.0470266,33.9830587 C40.6292802,33.9830587 41.1011877,33.5009936 41.1011877,32.9061944 L41.1011877,29.288183 C41.1024127,29.0021409 40.9916445,28.7278772 40.7935795,28.5255444 C40.5959262,28.3232117 40.3270354,28.2100569 40.0470266,28.2113083 L40.0470266,28.2113083 Z" id="Path"></path>
                </g>
            </g>
        </g>
    </g>
</svg>